<svg xmlns="http://www.w3.org/2000/svg" width="32.035" height="47.24" viewBox="0 0 32.035 47.24">
  <defs>
    <style>
      .cls-1 {
        fill: #dceee1;
      }
    </style>
  </defs>
  <g id="Grupo_999" data-name="Grupo 999" transform="translate(-5401.006 -2215.944)">
    <path id="Trazado_4790" data-name="Trazado 4790" class="cls-1" d="M5410.423,2240.254l6.119-6.119-1.654-.649c-2.76-1.051-3.68-2.89-3.68-4.8s1.183-4.993,6.177-4.993c2.153,0,4.346.6,7.509,2.087l5.875-5.875c-4.469-2.306-8.952-3.965-14.238-3.965-7.753,0-14.126,4.8-14.126,12.089C5402.4,2233.708,5405.151,2237.6,5410.423,2240.254Z" transform="translate(-0.966)"/>
    <path id="Trazado_4791" data-name="Trazado 4791" class="cls-1" d="M5422.791,2283.551l-.46-.18-6.149,6.149,3.193,1.193c2.76.986,4.862,2.563,4.862,5.65,0,3.022-2.235,5.65-6.637,5.65-3.117,0-6.469-.928-10.754-3.158l-5.84,5.84c5.6,3.037,11.875,5.071,16.267,5.071,8.607,0,15.768-5.125,15.768-13.4C5433.041,2290.646,5430.084,2286.376,5422.791,2283.551Z" transform="translate(0 -46.582)"/>
  </g>
</svg>
