<svg id="Grupo_988" data-name="Grupo 988" xmlns="http://www.w3.org/2000/svg" width="674" height="137.493" viewBox="0 0 674 137.493">
  <path id="Trazado_4781" data-name="Trazado 4781" d="M4940.383,2190.221c-20.846-7.65-31.744-19.888-31.744-39.2,0-21.226,18.547-35.187,41.112-35.187,17.593,0,32.128,6.312,47.044,14.533l-11.092,20.081c-16.063-8.8-24.86-12.048-33.464-12.048-14.533,0-17.977,8.987-17.977,14.533s2.678,10.9,10.71,13.959l25.814,10.136c21.227,8.223,29.832,20.652,29.832,37.289,0,24.1-20.843,39.011-45.9,39.011-14.531,0-36.141-7.649-53.925-18.548l11.281-20.271c18.742,11.665,31.744,16.254,43.6,16.254,12.813,0,19.315-7.649,19.315-16.446,0-8.987-6.119-13.576-14.152-16.444Z" transform="translate(-4657.258 -2115.832)"/>
  <g id="Grupo_972" data-name="Grupo 972">
    <path id="Trazado_4782" data-name="Trazado 4782" d="M4788.132,2186.588l17.809-17.81-4.814-1.89c-8.033-3.059-10.71-8.412-10.71-13.959s3.442-14.533,17.977-14.533c6.267,0,12.651,1.739,21.855,6.075l17.1-17.1c-13.007-6.712-26.055-11.54-41.442-11.54-22.564,0-41.113,13.96-41.113,35.187C4764.792,2167.534,4772.786,2178.864,4788.132,2186.588Z" transform="translate(-4763.534 -2115.832)"/>
    <path id="Trazado_4783" data-name="Trazado 4783" d="M4827.493,2150.414l-1.341-.526-17.9,17.9,9.292,3.474c8.03,2.868,14.151,7.457,14.151,16.444,0,8.8-6.5,16.446-19.315,16.446-9.073,0-18.828-2.7-31.3-9.192l-17,17c16.312,8.84,34.561,14.759,47.344,14.759,25.052,0,45.895-14.916,45.895-39.011C4857.324,2171.065,4848.72,2158.637,4827.493,2150.414Z" transform="translate(-4764.086 -2089.22)"/>
  </g>
  <g id="Grupo_973" data-name="Grupo 973" transform="translate(157.299 2.294)">
    <path id="Trazado_4784" data-name="Trazado 4784" d="M4878.01,2117.168v-.048h-25.624v17.847Z" transform="translate(-4852.386 -2117.121)"/>
    <path id="Trazado_4785" data-name="Trazado 4785" d="M4852.386,2148.179v91.483h25.624V2130.38Z" transform="translate(-4852.386 -2106.758)"/>
  </g>
  <g id="Grupo_974" data-name="Grupo 974" transform="translate(407.042 2.294)">
    <path id="Trazado_4786" data-name="Trazado 4786" d="M5047.188,2138.92h33.738v-21.8h-88.347v21.8Z" transform="translate(-4992.579 -2117.121)"/>
    <path id="Trazado_4787" data-name="Trazado 4787" d="M5017.439,2204.4v-35h52.206v-21.8h-77.065V2226.2h89.3v-21.8Z" transform="translate(-4992.579 -2093.298)"/>
  </g>
  <path id="Trazado_4788" data-name="Trazado 4788" d="M5143.019,2230.76c-24.859,0-43.98-20.461-43.98-46.278,0-25.624,22.373-46.085,43.98-46.085a34.573,34.573,0,0,1,14.339,3.087l7.211-22.351a70.037,70.037,0,0,0-21.55-3.3c-39.2,0-69.606,32.892-69.606,68.65,0,38.436,33.658,68.843,69.606,68.843,21.8,0,39.775-9.753,53.354-24.095l-20.461-15.874C5168.262,2222.538,5155.641,2230.76,5143.019,2230.76Z" transform="translate(-4522.373 -2115.832)"/>
</svg>
