<svg xmlns="http://www.w3.org/2000/svg" width="88.609" height="130.667" viewBox="0 0 88.609 130.667">
  <g id="Grupo_1000" data-name="Grupo 1000" transform="translate(-5401.006 -2215.944)">
    <path id="Trazado_4790" data-name="Trazado 4790" d="M5424.584,2283.187l16.925-16.924-4.574-1.8c-7.636-2.906-10.18-7.995-10.18-13.266s3.271-13.811,17.085-13.811c5.956,0,12.021,1.651,20.771,5.772l16.251-16.251c-12.361-6.377-24.761-10.966-39.384-10.966-21.446,0-39.074,13.268-39.074,33.439C5402.4,2265.081,5410,2275.847,5424.584,2283.187Z" transform="translate(-0.202 0)"/>
    <path id="Trazado_4791" data-name="Trazado 4791" d="M5461.264,2283.869l-1.272-.5-17.009,17.008,8.831,3.3c7.634,2.726,13.449,7.088,13.449,15.628,0,8.36-6.182,15.628-18.357,15.628-8.622,0-17.893-2.567-29.747-8.734L5401,2342.356c15.5,8.4,32.846,14.025,44.994,14.025,23.808,0,43.615-14.175,43.615-37.074C5489.614,2303.5,5481.438,2291.684,5461.264,2283.869Z" transform="translate(0.001 -9.77)"/>
  </g>
</svg>
