<svg xmlns="http://www.w3.org/2000/svg" xmlns:xlink="http://www.w3.org/1999/xlink" width="260" height="142" viewBox="0 0 260 142">
  <defs>
    <style>
      .cls-1 {
        fill: #2d327e;
      }

      .cls-2 {
        clip-path: url(#clip-path);
      }

      .cls-3 {
        opacity: 0.1;
      }

      .cls-4 {
        fill: #fff;
      }
    </style>
    <clipPath id="clip-path">
      <rect id="Rect치ngulo_2095" data-name="Rect치ngulo 2095" class="cls-1" width="260" height="142" rx="5" transform="translate(7765 -545)"/>
    </clipPath>
  </defs>
  <g id="Enmascarar_grupo_1" data-name="Enmascarar grupo 1" class="cls-2" transform="translate(-7765 545)">
    <rect id="Rect치ngulo_2057" data-name="Rect치ngulo 2057" class="cls-1" width="260" height="142" rx="5" transform="translate(7765 -545)"/>
    <g id="Grupo_987" data-name="Grupo 987" class="cls-3" transform="translate(1948.325 -1069.526) rotate(-17)">
      <path id="Trazado_4790" data-name="Trazado 4790" class="cls-4" d="M5413.291,2248.952l8.307-8.308-2.246-.882c-3.748-1.427-5-3.925-5-6.512s1.606-6.78,8.387-6.78c2.923,0,5.9.81,10.2,2.833l7.976-7.977c-6.067-3.13-12.154-5.383-19.332-5.383-10.527,0-19.181,6.513-19.181,16.415C5402.4,2240.064,5406.133,2245.349,5413.291,2248.952Z" transform="translate(-0.81 0)"/>
      <path id="Trazado_4791" data-name="Trazado 4791" class="cls-4" d="M5430.587,2283.615l-.624-.245-8.35,8.349,4.335,1.62c3.747,1.338,6.6,3.479,6.6,7.672,0,4.1-3.034,7.672-9.011,7.672-4.233,0-8.783-1.26-14.6-4.288l-7.929,7.93c7.608,4.124,16.123,6.885,22.086,6.885,11.686,0,21.41-6.958,21.41-18.2C5444.5,2293.25,5440.49,2287.451,5430.587,2283.615Z" transform="translate(-0.002 -39.124)"/>
    </g>
    <g id="Grupo_987-2" data-name="Grupo 987" class="cls-3" transform="translate(2015.267 -1089.992) rotate(-17)">
      <path id="Trazado_4790-2" data-name="Trazado 4790" class="cls-4" d="M5413.291,2248.952l8.307-8.308-2.246-.882c-3.748-1.427-5-3.925-5-6.512s1.606-6.78,8.387-6.78c2.923,0,5.9.81,10.2,2.833l7.976-7.977c-6.067-3.13-12.154-5.383-19.332-5.383-10.527,0-19.181,6.513-19.181,16.415C5402.4,2240.064,5406.133,2245.349,5413.291,2248.952Z" transform="translate(-0.81 0)"/>
      <path id="Trazado_4791-2" data-name="Trazado 4791" class="cls-4" d="M5430.587,2283.615l-.624-.245-8.35,8.349,4.335,1.62c3.747,1.338,6.6,3.479,6.6,7.672,0,4.1-3.034,7.672-9.011,7.672-4.233,0-8.783-1.26-14.6-4.288l-7.929,7.93c7.608,4.124,16.123,6.885,22.086,6.885,11.686,0,21.41-6.958,21.41-18.2C5444.5,2293.25,5440.49,2287.451,5430.587,2283.615Z" transform="translate(-0.002 -39.124)"/>
    </g>
    <g id="Grupo_987-3" data-name="Grupo 987" class="cls-3" transform="translate(2082.208 -1110.458) rotate(-17)">
      <path id="Trazado_4790-3" data-name="Trazado 4790" class="cls-4" d="M5413.291,2248.952l8.307-8.308-2.246-.882c-3.748-1.427-5-3.925-5-6.512s1.606-6.78,8.387-6.78c2.923,0,5.9.81,10.2,2.833l7.976-7.977c-6.067-3.13-12.154-5.383-19.332-5.383-10.527,0-19.181,6.513-19.181,16.415C5402.4,2240.064,5406.133,2245.349,5413.291,2248.952Z" transform="translate(-0.81 0)"/>
      <path id="Trazado_4791-3" data-name="Trazado 4791" class="cls-4" d="M5430.587,2283.615l-.624-.245-8.35,8.349,4.335,1.62c3.747,1.338,6.6,3.479,6.6,7.672,0,4.1-3.034,7.672-9.011,7.672-4.233,0-8.783-1.26-14.6-4.288l-7.929,7.93c7.608,4.124,16.123,6.885,22.086,6.885,11.686,0,21.41-6.958,21.41-18.2C5444.5,2293.25,5440.49,2287.451,5430.587,2283.615Z" transform="translate(-0.002 -39.124)"/>
    </g>
    <g id="Grupo_987-4" data-name="Grupo 987" class="cls-3" transform="translate(2149.149 -1130.924) rotate(-17)">
      <path id="Trazado_4790-4" data-name="Trazado 4790" class="cls-4" d="M5413.291,2248.952l8.307-8.308-2.246-.882c-3.748-1.427-5-3.925-5-6.512s1.606-6.78,8.387-6.78c2.923,0,5.9.81,10.2,2.833l7.976-7.977c-6.067-3.13-12.154-5.383-19.332-5.383-10.527,0-19.181,6.513-19.181,16.415C5402.4,2240.064,5406.133,2245.349,5413.291,2248.952Z" transform="translate(-0.81 0)"/>
      <path id="Trazado_4791-4" data-name="Trazado 4791" class="cls-4" d="M5430.587,2283.615l-.624-.245-8.35,8.349,4.335,1.62c3.747,1.338,6.6,3.479,6.6,7.672,0,4.1-3.034,7.672-9.011,7.672-4.233,0-8.783-1.26-14.6-4.288l-7.929,7.93c7.608,4.124,16.123,6.885,22.086,6.885,11.686,0,21.41-6.958,21.41-18.2C5444.5,2293.25,5440.49,2287.451,5430.587,2283.615Z" transform="translate(-0.002 -39.124)"/>
    </g>
    <g id="Grupo_987-5" data-name="Grupo 987" class="cls-3" transform="translate(1906.235 -967.774) rotate(-17)">
      <path id="Trazado_4790-5" data-name="Trazado 4790" class="cls-4" d="M5413.291,2248.952l8.307-8.308-2.246-.882c-3.748-1.427-5-3.925-5-6.512s1.606-6.78,8.387-6.78c2.923,0,5.9.81,10.2,2.833l7.976-7.977c-6.067-3.13-12.154-5.383-19.332-5.383-10.527,0-19.181,6.513-19.181,16.415C5402.4,2240.064,5406.133,2245.349,5413.291,2248.952Z" transform="translate(-0.81 0)"/>
      <path id="Trazado_4791-5" data-name="Trazado 4791" class="cls-4" d="M5430.587,2283.615l-.624-.245-8.35,8.349,4.335,1.62c3.747,1.338,6.6,3.479,6.6,7.672,0,4.1-3.034,7.672-9.011,7.672-4.233,0-8.783-1.26-14.6-4.288l-7.929,7.93c7.608,4.124,16.123,6.885,22.086,6.885,11.686,0,21.41-6.958,21.41-18.2C5444.5,2293.25,5440.49,2287.451,5430.587,2283.615Z" transform="translate(-0.002 -39.124)"/>
    </g>
    <g id="Grupo_987-6" data-name="Grupo 987" class="cls-3" transform="translate(1973.177 -988.24) rotate(-17)">
      <path id="Trazado_4790-6" data-name="Trazado 4790" class="cls-4" d="M5413.291,2248.952l8.307-8.308-2.246-.882c-3.748-1.427-5-3.925-5-6.512s1.606-6.78,8.387-6.78c2.923,0,5.9.81,10.2,2.833l7.976-7.977c-6.067-3.13-12.154-5.383-19.332-5.383-10.527,0-19.181,6.513-19.181,16.415C5402.4,2240.064,5406.133,2245.349,5413.291,2248.952Z" transform="translate(-0.81 0)"/>
      <path id="Trazado_4791-6" data-name="Trazado 4791" class="cls-4" d="M5430.587,2283.615l-.624-.245-8.35,8.349,4.335,1.62c3.747,1.338,6.6,3.479,6.6,7.672,0,4.1-3.034,7.672-9.011,7.672-4.233,0-8.783-1.26-14.6-4.288l-7.929,7.93c7.608,4.124,16.123,6.885,22.086,6.885,11.686,0,21.41-6.958,21.41-18.2C5444.5,2293.25,5440.49,2287.451,5430.587,2283.615Z" transform="translate(-0.002 -39.124)"/>
    </g>
    <g id="Grupo_987-7" data-name="Grupo 987" class="cls-3" transform="translate(2040.118 -1008.706) rotate(-17)">
      <path id="Trazado_4790-7" data-name="Trazado 4790" class="cls-4" d="M5413.291,2248.952l8.307-8.308-2.246-.882c-3.748-1.427-5-3.925-5-6.512s1.606-6.78,8.387-6.78c2.923,0,5.9.81,10.2,2.833l7.976-7.977c-6.067-3.13-12.154-5.383-19.332-5.383-10.527,0-19.181,6.513-19.181,16.415C5402.4,2240.064,5406.133,2245.349,5413.291,2248.952Z" transform="translate(-0.81 0)"/>
      <path id="Trazado_4791-7" data-name="Trazado 4791" class="cls-4" d="M5430.587,2283.615l-.624-.245-8.35,8.349,4.335,1.62c3.747,1.338,6.6,3.479,6.6,7.672,0,4.1-3.034,7.672-9.011,7.672-4.233,0-8.783-1.26-14.6-4.288l-7.929,7.93c7.608,4.124,16.123,6.885,22.086,6.885,11.686,0,21.41-6.958,21.41-18.2C5444.5,2293.25,5440.49,2287.451,5430.587,2283.615Z" transform="translate(-0.002 -39.124)"/>
    </g>
    <g id="Grupo_987-8" data-name="Grupo 987" class="cls-3" transform="translate(2107.06 -1029.172) rotate(-17)">
      <path id="Trazado_4790-8" data-name="Trazado 4790" class="cls-4" d="M5413.291,2248.952l8.307-8.308-2.246-.882c-3.748-1.427-5-3.925-5-6.512s1.606-6.78,8.387-6.78c2.923,0,5.9.81,10.2,2.833l7.976-7.977c-6.067-3.13-12.154-5.383-19.332-5.383-10.527,0-19.181,6.513-19.181,16.415C5402.4,2240.064,5406.133,2245.349,5413.291,2248.952Z" transform="translate(-0.81 0)"/>
      <path id="Trazado_4791-8" data-name="Trazado 4791" class="cls-4" d="M5430.587,2283.615l-.624-.245-8.35,8.349,4.335,1.62c3.747,1.338,6.6,3.479,6.6,7.672,0,4.1-3.034,7.672-9.011,7.672-4.233,0-8.783-1.26-14.6-4.288l-7.929,7.93c7.608,4.124,16.123,6.885,22.086,6.885,11.686,0,21.41-6.958,21.41-18.2C5444.5,2293.25,5440.49,2287.451,5430.587,2283.615Z" transform="translate(-0.002 -39.124)"/>
    </g>
    <g id="Grupo_987-9" data-name="Grupo 987" class="cls-3" transform="translate(2174.001 -1049.639) rotate(-17)">
      <path id="Trazado_4790-9" data-name="Trazado 4790" class="cls-4" d="M5413.291,2248.952l8.307-8.308-2.246-.882c-3.748-1.427-5-3.925-5-6.512s1.606-6.78,8.387-6.78c2.923,0,5.9.81,10.2,2.833l7.976-7.977c-6.067-3.13-12.154-5.383-19.332-5.383-10.527,0-19.181,6.513-19.181,16.415C5402.4,2240.064,5406.133,2245.349,5413.291,2248.952Z" transform="translate(-0.81 0)"/>
      <path id="Trazado_4791-9" data-name="Trazado 4791" class="cls-4" d="M5430.587,2283.615l-.624-.245-8.35,8.349,4.335,1.62c3.747,1.338,6.6,3.479,6.6,7.672,0,4.1-3.034,7.672-9.011,7.672-4.233,0-8.783-1.26-14.6-4.288l-7.929,7.93c7.608,4.124,16.123,6.885,22.086,6.885,11.686,0,21.41-6.958,21.41-18.2C5444.5,2293.25,5440.49,2287.451,5430.587,2283.615Z" transform="translate(-0.002 -39.124)"/>
    </g>
    <g id="Grupo_987-10" data-name="Grupo 987" class="cls-3" transform="translate(2131.911 -947.887) rotate(-17)">
      <path id="Trazado_4790-10" data-name="Trazado 4790" class="cls-4" d="M5413.291,2248.952l8.307-8.308-2.246-.882c-3.748-1.427-5-3.925-5-6.512s1.606-6.78,8.387-6.78c2.923,0,5.9.81,10.2,2.833l7.976-7.977c-6.067-3.13-12.154-5.383-19.332-5.383-10.527,0-19.181,6.513-19.181,16.415C5402.4,2240.064,5406.133,2245.349,5413.291,2248.952Z" transform="translate(-0.81 0)"/>
      <path id="Trazado_4791-10" data-name="Trazado 4791" class="cls-4" d="M5430.587,2283.615l-.624-.245-8.35,8.349,4.335,1.62c3.747,1.338,6.6,3.479,6.6,7.672,0,4.1-3.034,7.672-9.011,7.672-4.233,0-8.783-1.26-14.6-4.288l-7.929,7.93c7.608,4.124,16.123,6.885,22.086,6.885,11.686,0,21.41-6.958,21.41-18.2C5444.5,2293.25,5440.49,2287.451,5430.587,2283.615Z" transform="translate(-0.002 -39.124)"/>
    </g>
    <g id="Grupo_987-11" data-name="Grupo 987" class="cls-3" transform="translate(2198.853 -968.353) rotate(-17)">
      <path id="Trazado_4790-11" data-name="Trazado 4790" class="cls-4" d="M5413.291,2248.952l8.307-8.308-2.246-.882c-3.748-1.427-5-3.925-5-6.512s1.606-6.78,8.387-6.78c2.923,0,5.9.81,10.2,2.833l7.976-7.977c-6.067-3.13-12.154-5.383-19.332-5.383-10.527,0-19.181,6.513-19.181,16.415C5402.4,2240.064,5406.133,2245.349,5413.291,2248.952Z" transform="translate(-0.81 0)"/>
      <path id="Trazado_4791-11" data-name="Trazado 4791" class="cls-4" d="M5430.587,2283.615l-.624-.245-8.35,8.349,4.335,1.62c3.747,1.338,6.6,3.479,6.6,7.672,0,4.1-3.034,7.672-9.011,7.672-4.233,0-8.783-1.26-14.6-4.288l-7.929,7.93c7.608,4.124,16.123,6.885,22.086,6.885,11.686,0,21.41-6.958,21.41-18.2C5444.5,2293.25,5440.49,2287.451,5430.587,2283.615Z" transform="translate(-0.002 -39.124)"/>
    </g>
  </g>
</svg>
